<svg xmlns="http://www.w3.org/2000/svg" version="1.1" xmlns:xlink="http://www.w3.org/1999/xlink" width="512" height="512" x="0" y="0" viewBox="0 0 128 128" style="enable-background:new 0 0 512 512" xml:space="preserve" class="">
<g>
<path fill="#101f3c" d="M118.5 50.5A1.5 1.5 0 0 0 120 49V14a1.5 1.5 0 0 0-3 0v35a1.5 1.5 0 0 0 1.5 1.5zM9.5 50.5A1.5 1.5 0 0 0 11 49V14a1.5 1.5 0 0 0-3 0v35a1.5 1.5 0 0 0 1.5 1.5z" opacity="1" data-original="#212121" class="">
</path>
<circle cx="118.5" cy="9.5" r="8" fill="#101f3c" opacity="1" data-original="#424242" class="">
</circle>
<circle cx="9.5" cy="9.5" r="8" fill="#101f3c" opacity="1" data-original="#424242" class="">
</circle>
<path fill="#101f3c" d="M11.619 64.964a40.557 40.557 0 0 1 5.7-20.625 17.288 17.288 0 0 0-10.8 4.6c-4.2 4.181-4.38 9.647-4.646 17.565-.274 8.116-.453 13.463 3.406 17.665 3.758 4.312 8.929 4.578 13.867 4.3a40.927 40.927 0 0 1-7.527-23.505zM126.132 66.5c-.266-7.918-.45-13.384-4.646-17.565a17.288 17.288 0 0 0-10.8-4.6 40.343 40.343 0 0 1-1.827 44.125c4.948.281 10.046-.03 13.867-4.3 3.807-4.242 3.68-9.541 3.406-17.66z" opacity="1" data-original="#ffa000" class="">
</path>
<path fill="#fa510f" d="M116.381 64.964c0-25.129-23.452-45.5-52.381-45.5s-52.381 20.371-52.381 45.5c0 19.912 14.731 36.825 35.238 42.994-1.44 2.9-3.736 5.546-6.782 9.131a5.5 5.5 0 0 0 5.585 8.88 56.894 56.894 0 0 0 27.01-16.137c24.801-3.59 43.711-22.306 43.711-44.868z" opacity="1" data-original="#ffc107" class="">
</path>
<path fill="#101f3c" d="M64 101.964c23.078 0 39.5-18.665 37.071-39.839-.919-8.012-8.15-14.184-16.8-14.161-10.135.027-10.135 5.268-20.27 5.268s-10.135-5.241-20.27-5.268c-8.651-.023-15.882 6.149-16.8 14.161C24.5 83.3 40.922 101.964 64 101.964z" opacity="1" data-original="#424242" class="">
</path>
<g fill="#fff">
<path d="M73.224 79.714a4.562 4.562 0 0 0-6.357.036 3.591 3.591 0 0 1-5.663.007 4.5 4.5 0 0 0-6.41 6.318 12.568 12.568 0 0 0 18.475 0 4.528 4.528 0 0 0-.045-6.361zM85.5 65.635a4.57 4.57 0 0 0-4.5-4.671 4.516 4.516 0 0 0-4.5 4.5v7a4.505 4.505 0 0 0 4.5 4.5 4.559 4.559 0 0 0 4.5-4.671v-6.658zM47 60.964a4.569 4.569 0 0 0-4.5 4.671c.005 1.665.005 4.993 0 6.658a4.568 4.568 0 0 0 4.5 4.671 4.515 4.515 0 0 0 4.5-4.5v-7a4.516 4.516 0 0 0-4.5-4.5z" fill="#ffffff" opacity="1" data-original="#ffffff" class="">
</path>
</g>
<path fill="#101f3c" d="M83.439 39.485c3.825-3.9 7.094-7.333 9.885-12.227A57.836 57.836 0 0 0 64 19.464a57.838 57.838 0 0 0-29.322 7.793c2.791 4.895 6.06 8.329 9.885 12.228a10 10 0 0 0 7.137 2.979h24.6a9.993 9.993 0 0 0 7.139-2.979z" opacity="1" data-original="#424242" class="">
</path>
<circle cx="64" cy="30.964" r="4.5" fill="#ffffff" opacity="1" data-original="#ffffff" class="">
</circle>
</g>
</svg>
